<?xml version="1.0" encoding="UTF-8"?>
<!-- Generator: visioncortex VTracer 0.6.12 -->
<svg version="1.1" xmlns="http://www.w3.org/2000/svg" width="256" height="256" viewBox="0 0 882 882" fill="none">
<path d="M0 0 C2.331 -0.007 4.662 -0.016 6.993 -0.026 C13.287 -0.048 19.581 -0.051 25.874 -0.049 C31.149 -0.049 36.424 -0.057 41.699 -0.066 C54.869 -0.086 68.039 -0.087 81.209 -0.08 C92.594 -0.074 103.978 -0.095 115.363 -0.128 C127.104 -0.162 138.846 -0.177 150.587 -0.173 C157.158 -0.17 163.729 -0.176 170.3 -0.2 C176.489 -0.223 182.676 -0.221 188.865 -0.2 C191.118 -0.197 193.371 -0.202 195.624 -0.216 C215.069 -0.332 233.789 2.265 251.615 10.42 C251.92 10.558 251.92 10.558 253.463 11.259 C287.739 27.017 315.44 54.027 329.99 89.045 C335.008 102.74 338.473 116.592 341.115 130.92 C341.417 132.521 341.72 134.121 342.024 135.722 C342.477 138.112 342.93 140.503 343.38 142.894 C344.528 148.998 345.746 155.085 346.99 161.17 C350.458 178.31 353.595 195.516 356.802 212.706 C360.55 232.795 364.318 252.88 368.123 272.959 C368.271 273.741 368.419 274.522 368.572 275.328 C369.934 282.519 371.297 289.711 372.661 296.902 C374.654 307.406 376.642 317.912 378.615 328.42 C378.727 329.016 378.727 329.016 379.294 332.034 C379.871 335.12 380.444 338.207 381.013 341.295 C381.094 341.723 381.094 341.723 381.499 343.89 C384.212 358.731 382.288 373.736 374.431 386.83 C365.076 400.169 352.017 409.948 335.838 413.017 C328.54 413.93 321.145 413.697 313.802 413.681 C311.88 413.684 309.958 413.688 308.035 413.692 C302.768 413.702 297.501 413.7 292.233 413.696 C286.547 413.694 280.86 413.703 275.174 413.71 C264.039 413.723 252.904 413.725 241.77 413.722 C232.719 413.72 223.668 413.722 214.617 413.726 C213.328 413.727 212.04 413.728 210.712 413.728 C208.094 413.73 205.477 413.731 202.859 413.732 C185.286 413.74 167.712 413.744 150.139 413.74 C149.795 413.74 149.795 413.74 148.057 413.739 C144.576 413.738 141.095 413.737 137.614 413.737 C136.923 413.736 136.232 413.736 135.52 413.736 C134.122 413.736 132.724 413.735 131.326 413.735 C109.573 413.73 87.82 413.738 66.068 413.756 C41.614 413.777 17.16 413.788 -7.293 413.784 C-20.236 413.782 -33.178 413.784 -46.121 413.798 C-57.138 413.81 -68.156 413.812 -79.173 413.799 C-84.793 413.794 -90.413 413.792 -96.032 413.804 C-101.18 413.815 -106.328 413.812 -111.477 413.798 C-113.335 413.796 -115.194 413.798 -117.052 413.806 C-136.687 413.885 -152.296 410.173 -166.772 396.1 C-178.542 383.687 -182.759 369.25 -182.541 352.405 C-182.304 346.355 -181.415 340.496 -180.401 334.533 C-180.186 333.216 -179.972 331.899 -179.76 330.582 C-179.303 327.767 -178.839 324.954 -178.369 322.142 C-177.618 317.639 -176.882 313.133 -176.15 308.627 C-175.373 303.85 -174.595 299.074 -173.812 294.299 C-171.084 277.652 -168.455 260.99 -165.834 244.326 C-165.098 239.646 -164.361 234.966 -163.622 230.286 C-163.505 229.542 -163.387 228.798 -163.267 228.031 C-163.031 226.539 -162.796 225.047 -162.56 223.554 C-162.21 221.337 -161.861 219.121 -161.511 216.904 C-160.289 209.15 -159.065 201.396 -157.839 193.643 C-157.32 190.364 -156.802 187.085 -156.283 183.807 C-156.22 183.406 -156.22 183.406 -155.899 181.378 C-154.491 172.468 -153.092 163.558 -151.723 154.643 C-151.084 150.487 -150.437 146.333 -149.789 142.18 C-149.473 140.138 -149.16 138.096 -148.851 136.053 C-144.26 105.796 -135.957 78.516 -116.385 54.42 C-115.938 53.861 -115.491 53.301 -115.03 52.725 C-95.6 28.545 -68.42 11.236 -38.385 3.42 C-37.894 3.291 -37.894 3.291 -35.41 2.641 C-23.63 -0.076 -12.041 -0.018 0 0 Z M-95.385 64.42 C-118.532 92.157 -123.321 124.769 -128.104 159.353 C-129.382 168.579 -130.744 177.784 -132.237 186.978 C-134.351 200.101 -136.346 213.24 -138.319 226.385 C-138.682 228.801 -139.045 231.217 -139.409 233.634 C-140.165 238.661 -140.921 243.689 -141.675 248.717 C-142.438 253.795 -143.201 258.872 -143.964 263.949 C-144.152 265.196 -144.339 266.442 -144.533 267.726 C-144.908 270.224 -145.284 272.721 -145.66 275.219 C-146.576 281.308 -147.489 287.398 -148.398 293.488 C-148.747 295.821 -149.095 298.153 -149.443 300.486 C-149.61 301.606 -149.778 302.726 -149.95 303.881 C-150.831 309.767 -151.726 315.65 -152.648 321.53 C-153.136 324.649 -153.616 327.77 -154.095 330.89 C-154.402 332.872 -154.722 334.851 -155.043 336.831 C-157.062 350.052 -158.651 363.649 -151.135 375.369 C-146.73 381.138 -140.224 385.14 -133.385 387.42 C-131.347 387.523 -129.305 387.566 -127.264 387.578 C-126.618 387.583 -126.618 387.583 -123.348 387.608 C-121.902 387.614 -120.456 387.62 -119.01 387.625 C-117.477 387.635 -115.944 387.645 -114.411 387.655 C-110.164 387.683 -105.917 387.703 -101.67 387.723 C-97.993 387.741 -94.317 387.762 -90.64 387.783 C-78.344 387.854 -66.048 387.912 -53.751 387.967 C-49.446 387.987 -45.141 388.008 -40.837 388.029 C36.554 388.402 113.945 388.555 191.337 388.597 C201.662 388.603 211.987 388.613 222.313 388.625 C235.724 388.642 249.136 388.652 262.548 388.65 C269.08 388.649 275.613 388.651 282.145 388.662 C288.169 388.671 294.193 388.672 300.217 388.664 C302.403 388.663 304.589 388.666 306.775 388.672 C336.554 388.749 336.554 388.749 347.615 379.42 C355.893 370.146 357.156 361.51 356.615 349.42 C356.053 344.869 355.197 340.399 354.299 335.904 C353.918 333.918 353.537 331.932 353.157 329.946 C352.748 327.824 352.333 325.703 351.917 323.583 C351.031 319.071 350.163 314.556 349.297 310.041 C348.995 308.466 348.694 306.891 348.392 305.316 C348.24 304.525 348.088 303.733 347.932 302.917 C347.462 300.47 346.991 298.023 346.519 295.576 C343.055 277.593 339.728 259.584 336.406 241.574 C335.141 234.718 333.873 227.862 332.606 221.007 C332.146 218.517 331.686 216.026 331.226 213.536 C329.366 203.47 327.497 193.405 325.619 183.342 C324.952 179.765 324.286 176.188 323.62 172.611 C323.204 170.378 322.787 168.146 322.37 165.914 C320.27 154.674 318.257 143.435 316.513 132.134 C312.627 107.058 304.481 79.852 285.236 61.979 C283.661 60.464 282.388 58.896 281.052 57.17 C272.136 46.678 259.689 39.642 247.615 33.42 C246.66 32.916 245.705 32.412 244.72 31.893 C237.085 28.127 228.936 26.068 220.615 24.42 C219.787 24.25 218.959 24.08 218.105 23.905 C207.407 21.98 196.774 22.131 185.938 22.145 C183.767 22.141 181.596 22.136 179.424 22.13 C173.558 22.116 167.692 22.116 161.827 22.118 C156.914 22.119 152.001 22.115 147.089 22.11 C135.49 22.099 123.891 22.098 112.292 22.104 C100.363 22.11 88.434 22.098 76.504 22.077 C66.23 22.059 55.955 22.053 45.68 22.056 C39.558 22.058 33.436 22.056 27.314 22.042 C21.552 22.029 15.79 22.031 10.028 22.044 C7.925 22.046 5.823 22.044 3.721 22.035 C-35.023 21.893 -69.24 34.7 -95.385 64.42 Z " fill="#000000" transform="translate(343.385009765625,234.580078125)"/>
<path d="M0 0 C3.792 1.767 7.243 3.978 10.75 6.25 C11.739 6.872 12.728 7.495 13.748 8.136 C15.807 9.433 17.863 10.735 19.915 12.044 C22.924 13.952 25.952 15.822 28.992 17.68 C29.94 18.259 30.888 18.839 31.864 19.437 C33.663 20.537 35.462 21.636 37.261 22.735 C48.045 29.394 48.045 29.394 50.375 33.312 C51.23 36.99 51.04 39.36 50 43 C47.415 46.116 45.835 47.606 41.895 48.452 C33.668 48.88 28.438 45.304 21.75 40.875 C20.618 40.146 19.485 39.419 18.351 38.694 C16.034 37.209 13.724 35.712 11.419 34.207 C8.156 32.087 4.845 30.052 1.52 28.031 C-0.466 26.813 -2.452 25.594 -4.438 24.375 C-5.36 23.821 -6.283 23.266 -7.233 22.695 C-11.986 19.726 -15.217 17.581 -17 12 C-17 7.464 -16.514 5.606 -13.562 2.125 C-9.066 -1.604 -5.542 -1.37 0 0 Z " fill="#000000" transform="translate(94,324)"/>
<path d="M0 0 C3.584 2.057 5.425 3.223 6.699 7.16 C7.248 10.695 7.384 13.032 6.047 16.406 C3.034 20.225 -0.717 22.438 -4.812 25 C-5.687 25.557 -6.561 26.115 -7.462 26.689 C-16.743 32.562 -26.19 38.169 -35.7 43.663 C-37.151 44.506 -38.594 45.363 -40.026 46.238 C-44.822 49.13 -48.493 50.227 -54 49 C-56.756 46.818 -58.436 45.128 -60 42 C-60.385 36.901 -60.03 34.117 -57 30 C-54.375 28.046 -54.375 28.046 -51.215 26.18 C-50.93 26.009 -50.93 26.009 -49.49 25.147 C-47.646 24.045 -45.792 22.96 -43.938 21.875 C-42.666 21.12 -41.395 20.363 -40.125 19.605 C-37.598 18.099 -35.067 16.597 -32.535 15.1 C-27.092 11.876 -21.714 8.547 -16.332 5.224 C-6.535 -0.789 -6.535 -0.789 0 0 Z " fill="#000000" transform="translate(797,323)"/>
<path d="M0 0 C1.789 0.121 3.579 0.233 5.369 0.334 C8.001 0.483 10.63 0.662 13.259 0.848 C14.053 0.888 14.847 0.928 15.665 0.969 C21.339 1.421 24.028 2.926 28.033 6.993 C29.679 10.285 29.637 13.449 29.033 16.993 C27.758 20.406 26.213 22.198 23.033 23.993 C17.695 24.93 12.404 24.369 7.033 23.993 C5.168 23.885 3.303 23.776 1.437 23.671 C-33.632 21.677 -33.632 21.677 -38.967 16.993 C-40.894 13.893 -40.973 12.161 -40.842 8.493 C-39.888 4.676 -38.686 2.794 -35.967 -0.007 C-27.145 -4.418 -9.708 -0.681 0 0 Z " fill="#000000" transform="translate(100.96728515625,405.007080078125)"/>
<path d="M0 0 C2.331 3.419 3 5.41 3 9.562 C1.814 13.64 0.237 15.316 -3 18 C-5.309 19.155 -6.988 19.277 -9.559 19.5 C-10.493 19.582 -11.427 19.664 -12.389 19.749 C-13.395 19.832 -14.401 19.915 -15.438 20 C-15.953 20.043 -15.953 20.043 -18.564 20.263 C-28.035 21.04 -37.504 21.64 -47 22 C-47.642 22.027 -47.642 22.027 -50.891 22.164 C-52.04 22.192 -53.19 22.221 -54.375 22.25 C-55.352 22.276 -56.329 22.302 -57.336 22.328 C-60.571 21.93 -62.387 20.922 -65 19 C-67.681 14.978 -67.813 11.728 -67 7 C-65.289 3.928 -63.19 1.595 -60 0 C-58.677 -0.173 -57.347 -0.295 -56.016 -0.389 C-55.194 -0.449 -54.372 -0.509 -53.525 -0.571 C-52.633 -0.631 -51.74 -0.692 -50.82 -0.754 C-49.897 -0.819 -48.974 -0.884 -48.023 -0.951 C-46.061 -1.089 -44.099 -1.224 -42.137 -1.357 C-39.171 -1.559 -36.207 -1.77 -33.242 -1.982 C-5.488 -3.933 -5.488 -3.933 0 0 Z " fill="#000000" transform="translate(819,407)"/>
<path d="M0 0 C3.269 2.669 4.568 4.141 5.508 8.188 C5.859 12.704 5.573 14.292 2.605 17.957 C-1.49 21.779 -6.316 23.899 -11.375 26.188 C-11.873 26.418 -11.873 26.418 -14.395 27.583 C-16.505 28.557 -18.618 29.527 -20.733 30.492 C-24.043 32.02 -27.323 33.599 -30.602 35.191 C-32.734 36.211 -34.867 37.231 -37 38.25 C-37.996 38.74 -38.991 39.23 -40.017 39.735 C-45.505 42.314 -49.096 43.881 -55 42 C-57.875 39.5 -57.875 39.5 -60 37 C-60.33 36.67 -60.66 36.34 -61 36 C-61.524 29.82 -61.155 26.939 -57 22 C-54.222 20.21 -51.282 18.926 -48.25 17.625 C-46.533 16.852 -44.817 16.077 -43.102 15.301 C-42.243 14.917 -41.385 14.534 -40.501 14.139 C-36.824 12.464 -33.226 10.644 -29.625 8.812 C-28.325 8.163 -27.024 7.515 -25.723 6.867 C-23.278 5.649 -20.853 4.4 -18.434 3.133 C-6.621 -2.808 -6.621 -2.808 0 0 Z " fill="#000000" transform="translate(129,466)"/>
<path d="M0 0 C1.3 0.643 2.601 1.286 3.902 1.927 C6.452 3.187 8.998 4.452 11.542 5.723 C14.455 7.167 17.377 8.58 20.316 9.969 C21.053 10.321 21.79 10.674 22.549 11.037 C24.407 11.926 26.268 12.809 28.129 13.691 C31.839 15.948 34.066 18.569 36 22.438 C36.44 26.306 36.126 28.194 34.312 31.688 C31.816 34.656 30.765 35.667 27 36.438 C21.001 36.045 16.754 34.71 11.5 31.875 C10.097 31.146 8.693 30.416 7.289 29.688 C6.579 29.314 5.869 28.94 5.138 28.555 C2.402 27.125 -0.358 25.745 -3.122 24.371 C-4.454 23.709 -5.784 23.043 -7.112 22.373 C-10.379 20.728 -13.655 19.123 -16.977 17.59 C-17.612 17.29 -18.247 16.991 -18.902 16.682 C-20.632 15.868 -22.371 15.07 -24.109 14.273 C-27.533 12.099 -29.054 9.968 -31 6.438 C-31.664 2.456 -31.182 0.788 -29.312 -2.812 C-21.08 -12.603 -9.15 -4.591 0 0 Z " fill="#000000" transform="translate(778,472.5625)"/>
</svg>
